<?xml version="1.0" encoding="UTF-8" standalone="no"?>
<svg
   version="1.0"
   width="512.000000pt"
   height="512.000000pt"
   viewBox="0 0 512.000000 512.000000"
   preserveAspectRatio="xMidYMid meet"
   id="svg4"
   sodipodi:docname="Favicon.svg"
   inkscape:version="1.3.2 (091e20e, 2023-11-25, custom)"
   inkscape:export-filename="Favicon-16x16.png"
   inkscape:export-xdpi="2.25"
   inkscape:export-ydpi="2.25"
   xmlns:inkscape="http://www.inkscape.org/namespaces/inkscape"
   xmlns:sodipodi="http://sodipodi.sourceforge.net/DTD/sodipodi-0.dtd"
   xmlns:xlink="http://www.w3.org/1999/xlink"
   xmlns="http://www.w3.org/2000/svg"
   xmlns:svg="http://www.w3.org/2000/svg">
  <defs
     id="defs4">
    <linearGradient
       id="linearGradient16"
       inkscape:collect="always">
      <stop
         style="stop-color:#86f9a3;stop-opacity:1;"
         offset="0"
         id="stop17" />
      <stop
         style="stop-color:#0dcdf6;stop-opacity:1;"
         offset="1"
         id="stop18" />
    </linearGradient>
    <linearGradient
       inkscape:collect="always"
       xlink:href="#linearGradient16"
       id="linearGradient18"
       x1="2594.6372"
       y1="5135.7441"
       x2="2588.3396"
       y2="3.1488316"
       gradientUnits="userSpaceOnUse" />
    <linearGradient
       inkscape:collect="always"
       xlink:href="#linearGradient16"
       id="linearGradient2"
       gradientUnits="userSpaceOnUse"
       x1="2594.6372"
       y1="5135.7441"
       x2="2588.3396"
       y2="3.1488316"
       gradientTransform="matrix(1.1479715,0,0,1.1583389,-378.80712,-405.34744)" />
    <linearGradient
       inkscape:collect="always"
       xlink:href="#linearGradient16"
       id="linearGradient3"
       gradientUnits="userSpaceOnUse"
       x1="2594.6372"
       y1="5135.7441"
       x2="2588.3396"
       y2="3.1488316"
       gradientTransform="matrix(1.1479715,0,0,1.1583389,-378.80712,-405.34744)" />
    <linearGradient
       inkscape:collect="always"
       xlink:href="#linearGradient16"
       id="linearGradient4"
       gradientUnits="userSpaceOnUse"
       x1="2594.6372"
       y1="5135.7441"
       x2="2588.3396"
       y2="3.1488316"
       gradientTransform="matrix(1.1479715,0,0,1.1583389,-378.80712,-405.34744)" />
  </defs>
  <sodipodi:namedview
     id="namedview4"
     pagecolor="#ffffff"
     bordercolor="#000000"
     borderopacity="0.25"
     inkscape:showpageshadow="2"
     inkscape:pageopacity="0.0"
     inkscape:pagecheckerboard="0"
     inkscape:deskcolor="#d1d1d1"
     inkscape:document-units="pt"
     inkscape:zoom="1"
     inkscape:cx="346.5"
     inkscape:cy="303.5"
     inkscape:window-width="1920"
     inkscape:window-height="1009"
     inkscape:window-x="-8"
     inkscape:window-y="-8"
     inkscape:window-maximized="1"
     inkscape:current-layer="g4" />
  <g
     transform="translate(0.000000,512.000000) scale(0.100000,-0.100000)"
     fill="#000000"
     stroke="none"
     id="g4"
     style="fill-opacity:1;fill:url(#linearGradient18)">
    <rect
       style="fill:#000000;fill-opacity:1;stroke-width:7.50474"
       id="rect18"
       width="5119.8799"
       height="5119.8525"
       x="0.12429611"
       y="-5119.8774"
       transform="scale(1,-1)" />
    <path
       d="M 0.02347319,2560 V 0.07116888 H 2560 5119.9766 V 2560 5119.9289 H 2560 0.02347319 Z M 1681.8018,4650.8016 c 299.6206,-57.9169 476.4082,-294.218 441.969,-594.2279 -39.0311,-346.3432 -317.9881,-657.9364 -663.5275,-739.02 -182.5275,-44.017 -295.0287,16.2167 -316.8402,169.1174 -10.3317,69.5003 10.3318,103.0921 50.5107,81.0837 17.2196,-9.2668 52.8067,-12.7418 98.7256,-8.1084 164.16,12.7417 384.5705,172.5925 474.1122,344.0266 52.8068,100.7755 61.9906,209.6593 24.1075,298.8515 -49.3628,114.6756 -135.4606,158.6924 -297.3247,150.5841 -90.6898,-4.6334 -112.5012,-10.4252 -191.7113,-48.6503 -228.4462,-114.6756 -371.94268,-378.7769 -371.94268,-681.1032 0,-169.1175 27.55132,-276.843 152.68028,-600.0196 88.3937,-229.3511 129.7208,-368.3518 145.7923,-488.819 6.8879,-53.2835 14.9237,-112.3588 18.3675,-132.0505 6.8879,-47.492 260.5896,-301.1682 343.2435,-342.8684 123.9809,-62.5503 221.5586,-50.9669 304.2126,35.9085 66.5823,69.5003 96.4295,150.5841 99.8733,273.368 1.1482,50.9668 2.2961,96.1422 2.2961,101.9338 2.296,16.2168 111.3532,6.95 158.4201,-15.0584 70.0262,-31.2751 95.2816,-78.767 95.2816,-179.5425 0,-275.6846 -189.4153,-522.4108 -430.4893,-561.7943 -174.4917,-28.9585 -353.5752,48.6501 -556.7663,240.9344 l -86.0979,81.0838 -34.4389,-57.917 c -44.771,-75.292 -141.2007,-166.8008 -208.93097,-198.076 -45.91886,-20.85 -75.76613,-25.4834 -175.63964,-25.4834 -104.46541,0 -128.57282,3.475 -177.93559,27.8002 -172.19573,85.717 -262.88549,300.0096 -207.78285,489.9773 37.88306,132.0506 160.71602,255.9928 291.58476,294.218 61.99047,18.5335 199.74706,24.3252 242.22201,10.4251 22.95943,-6.95 22.95943,-5.7917 -3.44392,71.817 -14.92363,44.0169 -60.84249,159.8507 -102.16947,258.3095 -153.82819,367.1934 -185.97139,492.2941 -184.82341,712.3784 0,202.7093 30.99522,339.3933 115.94511,509.6692 189.41532,382.2517 575.13367,594.2278 950.52047,521.2524 z m 1833.3106,-44.0168 c 11.4796,-8.1084 33.2911,-32.4335 47.0667,-54.442 l 25.2554,-40.5419 5.7398,-1222.0475 5.74,-1222.0474 33.2911,-3.475 c 29.8473,-3.4751 47.0669,9.2666 132.0168,98.4587 114.7971,118.1507 197.4511,239.7763 276.6611,403.102 109.0573,224.7177 104.4655,166.8008 102.1694,1158.3389 l -1.148,868.7541 25.2554,16.2167 c 33.2912,22.0084 135.4608,19.6917 180.2316,-3.475 19.5156,-9.2667 50.5108,-35.9085 71.1742,-59.0753 l 35.5873,-41.7002 V 3114.8443 1723.6793 l 125.1288,8.1085 c 125.1289,8.1083 126.2767,8.1083 154.9762,-20.8502 37.883,-39.3836 39.031,-97.3004 2.2959,-177.2258 -34.4392,-74.1337 -80.358,-108.8839 -146.9404,-108.8839 -26.4034,0 -68.8783,-3.4749 -91.8377,-6.95 -41.3271,-6.95 -42.475,-8.1084 -49.3628,-72.9754 C 4407.0863,941.80065 4343.9477,743.7247 4215.375,601.24902 4143.0527,521.32365 4055.8069,476.14843 3943.3058,459.93169 3625.3176,413.59814 3389.9834,674.22437 3441.6422,1014.776 c 21.8114,137.8423 68.8783,223.5594 190.5632,346.3433 115.9451,115.8339 214.6707,176.0675 402.9382,244.4095 l 103.3172,37.0668 2.296,287.268 c 2.2959,275.6847 1.1479,287.2681 -17.2196,259.468 -133.1647,-195.7593 -272.0691,-338.235 -385.7184,-393.8352 -83.802,-41.7002 -198.599,-56.7586 -265.1814,-34.7502 -60.8424,20.8501 -125.1289,82.242 -156.1242,154.0591 l -27.5513,60.2336 -3.4439,1167.6056 -3.4439,1166.4472 h -28.6993 c -47.0668,0 -199.747,-56.7586 -269.7732,-99.6172 -148.0885,-90.3505 -270.9214,-274.5263 -314.5442,-467.9689 -25.2555,-114.6755 -26.4034,-326.6515 -1.1481,-434.3771 25.2553,-107.7255 89.5417,-238.6177 137.7567,-281.4763 34.439,-30.1168 45.9188,-34.7502 73.47,-25.4835 48.2149,12.7418 64.2865,-1.1583 61.9905,-59.0752 -4.5918,-100.7755 -96.4296,-221.2428 -182.5274,-237.4595 -57.3985,-10.425 -98.7255,12.7418 -181.3795,101.9338 -233.0383,253.6763 -309.9523,721.6452 -182.5275,1109.6886 81.506,247.8846 221.5586,425.1104 438.5252,552.5277 203.1908,120.4672 585.4654,198.0759 681.8951,139.0007 z"
       id="path2"
       style="display:inline;fill:url(#linearGradient2);fill-opacity:1;stroke-width:1.15314" />
    <path
       d="m 715.20975,2300.532 c -71.17424,-32.4334 -96.42961,-116.9921 -61.99047,-201.5508 19.5155,-46.3336 64.28641,-71.8171 128.57281,-71.8171 40.17901,0 53.95466,6.95 90.68976,44.0169 43.6229,45.1753 87.24582,140.159 76.9141,167.9591 -8.03583,23.1668 -103.31746,67.1837 -154.97617,72.9754 -22.95943,2.3167 -58.54655,-2.3167 -79.21003,-11.5835 z"
       id="path3"
       style="display:inline;fill:url(#linearGradient3);fill-opacity:1;stroke-width:1.15314" />
    <path
       d="m 4047.7712,1314.7858 c -194.0073,-79.9254 -305.3605,-220.0845 -305.3605,-384.56855 0,-106.56717 52.8067,-165.64245 148.0884,-165.64245 90.6896,0 166.4558,101.93382 207.7828,281.4764 28.6992,123.9422 45.9188,297.693 28.6992,297.693 -5.7398,0 -42.4749,-12.7417 -79.2099,-28.9584 z"
       id="path4"
       style="display:inline;fill:url(#linearGradient4);fill-opacity:1;stroke-width:1.15314" />
  </g>
</svg>
